G04 #@! TF.FileFunction,Paste,Top*
%FSLAX46Y46*%
G04 Gerber Fmt 4.6, Leading zero omitted, Abs format (unit mm)*
G04 Created by KiCad (PCBNEW 4.0.4-stable) date 12/12/16 02:41:32*
%MOMM*%
%LPD*%
G01*
G04 APERTURE LIST*
%ADD10C,0.100000*%
%ADD11R,0.400000X1.200000*%
%ADD12R,1.600000X2.000000*%
%ADD13R,2.000000X1.600000*%
%ADD14R,2.000000X1.700000*%
%ADD15R,1.700000X2.000000*%
%ADD16R,1.600000X1.500000*%
%ADD17R,1.200000X1.200000*%
%ADD18R,1.550000X0.600000*%
G04 APERTURE END LIST*
D10*
D11*
X148526500Y-100524000D03*
X147891500Y-100524000D03*
X147256500Y-100524000D03*
X146621500Y-100524000D03*
X145986500Y-100524000D03*
X145351500Y-100524000D03*
X144716500Y-100524000D03*
X144081500Y-100524000D03*
X144081500Y-105724000D03*
X144716500Y-105724000D03*
X145351500Y-105724000D03*
X145986500Y-105724000D03*
X146621500Y-105724000D03*
X147256500Y-105724000D03*
X147891500Y-105724000D03*
X148526500Y-105724000D03*
D12*
X154432000Y-98012000D03*
X154432000Y-94012000D03*
X154432000Y-106648000D03*
X154432000Y-102648000D03*
D13*
X137890000Y-85090000D03*
X133890000Y-85090000D03*
D14*
X145828000Y-92964000D03*
X149828000Y-92964000D03*
X144748000Y-96520000D03*
X140748000Y-96520000D03*
D15*
X149860000Y-109760000D03*
X149860000Y-113760000D03*
X135636000Y-125952000D03*
X135636000Y-121952000D03*
D16*
X141224000Y-125000000D03*
D17*
X142224000Y-121750000D03*
X140224000Y-121750000D03*
D18*
X144686000Y-116205000D03*
X144686000Y-114935000D03*
X144686000Y-113665000D03*
X144686000Y-112395000D03*
X139286000Y-112395000D03*
X139286000Y-113665000D03*
X139286000Y-114935000D03*
X139286000Y-116205000D03*
M02*
