G04 #@! TF.FileFunction,Soldermask,Top*
%FSLAX46Y46*%
G04 Gerber Fmt 4.6, Leading zero omitted, Abs format (unit mm)*
G04 Created by KiCad (PCBNEW 4.0.4-stable) date 12/12/16 02:41:32*
%MOMM*%
%LPD*%
G01*
G04 APERTURE LIST*
%ADD10C,0.100000*%
%ADD11R,0.800000X1.600000*%
%ADD12R,2.000000X2.400000*%
%ADD13R,2.400000X2.000000*%
%ADD14R,3.900120X3.900120*%
%ADD15O,5.401260X3.900120*%
%ADD16C,2.000200*%
%ADD17R,2.400000X2.100000*%
%ADD18R,2.100000X2.400000*%
%ADD19C,1.400000*%
%ADD20R,2.000000X1.900000*%
%ADD21R,1.600000X1.600000*%
%ADD22R,1.950000X1.000000*%
G04 APERTURE END LIST*
D10*
D11*
X148526500Y-100524000D03*
X147891500Y-100524000D03*
X147256500Y-100524000D03*
X146621500Y-100524000D03*
X145986500Y-100524000D03*
X145351500Y-100524000D03*
X144716500Y-100524000D03*
X144081500Y-100524000D03*
X144081500Y-105724000D03*
X144716500Y-105724000D03*
X145351500Y-105724000D03*
X145986500Y-105724000D03*
X146621500Y-105724000D03*
X147256500Y-105724000D03*
X147891500Y-105724000D03*
X148526500Y-105724000D03*
D12*
X154432000Y-98012000D03*
X154432000Y-94012000D03*
X154432000Y-106648000D03*
X154432000Y-102648000D03*
D13*
X137890000Y-85090000D03*
X133890000Y-85090000D03*
D14*
X131930140Y-77470000D03*
X125930660Y-77470000D03*
X128930400Y-82169000D03*
D15*
X126466600Y-101617780D03*
X126466600Y-91419680D03*
D16*
X130731260Y-96520000D03*
X130731260Y-99019360D03*
D15*
X126466600Y-124477780D03*
X126466600Y-114279680D03*
D16*
X130731260Y-119380000D03*
X130731260Y-121879360D03*
D17*
X145828000Y-92964000D03*
X149828000Y-92964000D03*
X144748000Y-96520000D03*
X140748000Y-96520000D03*
D18*
X149860000Y-109760000D03*
X149860000Y-113760000D03*
X135636000Y-125952000D03*
X135636000Y-121952000D03*
D19*
X144860000Y-89930000D03*
X146860000Y-89930000D03*
X148860000Y-89930000D03*
X150860000Y-89930000D03*
X152860000Y-89930000D03*
X154860000Y-89930000D03*
D20*
X141224000Y-125000000D03*
D21*
X142224000Y-121750000D03*
X140224000Y-121750000D03*
D22*
X144686000Y-116205000D03*
X144686000Y-114935000D03*
X144686000Y-113665000D03*
X144686000Y-112395000D03*
X139286000Y-112395000D03*
X139286000Y-113665000D03*
X139286000Y-114935000D03*
X139286000Y-116205000D03*
M02*
